<svg xmlns="http://www.w3.org/2000/svg" viewBox="0 0 1200 630" width="1200" height="630" fill="none">
  <rect width="1200" height="630" fill="#141414"/>
  <path fill="#FFFFFF" fill-opacity="0.05" d="M1360 320L1727.052 221.649A380 380 0 0 0 1628.701 51.299ZM1360 320L1091.299 51.299A380 380 0 0 0 992.948 221.649ZM1360 320L1261.649 687.052A380 380 0 0 0 1458.351 687.052ZM1360 180.276L1170.403 -9.322A380 380 0 0 1 1549.597 -9.322ZM1238.995 389.862L1169.598 648.857A380 380 0 0 1 980 320.465ZM1481.005 389.862L1740 320.465A380 380 0 0 1 1550.402 648.857Z"/>
  <g transform="translate(72 64) scale(1.692)">
    <path fill="#FFFFFF" d="M10.807 12.807L21.247 10.01A10.807 10.807 0 0 0 18.45 5.165ZM10.807 12.807L3.165 5.165A10.807 10.807 0 0 0 0.368 10.01ZM10.807 12.807L8.01 23.247A10.807 10.807 0 0 0 13.605 23.247ZM10.807 8.834L5.415 3.441A10.807 10.807 0 0 1 16.2 3.441ZM7.366 14.794L5.392 22.16A10.807 10.807 0 0 1 0 12.821ZM14.249 14.794L21.615 12.821A10.807 10.807 0 0 1 16.223 22.16Z"/>
    <path fill="#FFFFFF" transform="translate(25.115 0)" d="M2.162 18.848V11.623H0V8.218H2.162V5.109L6.159 4.694V8.218H9.416V11.623H6.159V18.641Q6.159 20.062 7.402 20.062H9.061V23.615H6.869Q4.53 23.615 3.346 22.46Q2.162 21.306 2.162 18.848ZM10.452 8.218H14.45V23.615H10.452ZM12.436 2.237Q13.472 2.237 14.153 2.918Q14.834 3.599 14.834 4.576Q14.834 5.583 14.153 6.264Q13.472 6.945 12.436 6.945Q11.429 6.945 10.734 6.249Q10.038 5.553 10.038 4.576Q10.038 3.599 10.734 2.918Q11.429 2.237 12.436 2.237ZM20.52 16.301V23.615H16.522V2H20.52V14.436L26.293 8.218H31.978L24.724 15.384L32.008 23.615H26.708ZM36.746 16.301V23.615H32.748V2H36.746V14.436L42.52 8.218H48.205L40.95 15.384L48.234 23.615H42.934ZM46.458 15.946Q46.458 13.755 47.494 11.89Q48.53 10.024 50.351 8.929Q52.172 7.833 54.423 7.833Q56.673 7.833 58.464 8.929Q60.256 10.024 61.248 11.875Q62.24 13.725 62.24 15.946Q62.24 16.686 62.121 17.367H50.603Q50.958 18.759 51.95 19.603Q52.942 20.447 54.423 20.447Q55.666 20.447 56.643 19.869Q57.62 19.292 58.183 18.374L61.292 20.713Q60.345 22.194 58.509 23.097Q56.673 24 54.423 24Q52.083 24 50.277 22.919Q48.471 21.838 47.464 20.003Q46.458 18.167 46.458 15.946ZM58.213 14.377Q57.857 13.044 56.821 12.156Q55.785 11.268 54.363 11.268Q52.972 11.268 51.95 12.127Q50.929 12.985 50.603 14.377ZM64.223 18.848V11.623H62.062V8.218H64.223V5.109L68.221 4.694V8.218H71.478V11.623H68.221V18.641Q68.221 20.062 69.464 20.062H71.122V23.615H68.931Q66.592 23.615 65.408 22.46Q64.223 21.306 64.223 18.848Z"/>
  </g>
  <path fill="#A3A3A3" d="M1015.76 80.82V82.66H1008.41V80.82ZM1010.56 77.42H1012.74V90.94Q1012.74 91.86 1013.01 92.32Q1013.28 92.77 1013.71 92.93Q1014.14 93.08 1014.62 93.08Q1014.98 93.08 1015.21 93.04Q1015.44 93 1015.58 92.97L1016.02 94.93Q1015.8 95.01 1015.4 95.1Q1015.01 95.18 1014.4 95.18Q1013.47 95.18 1012.59 94.79Q1011.71 94.39 1011.13 93.58Q1010.56 92.77 1010.56 91.53ZM1019.05 95V80.82H1021.23V95ZM1020.16 78.45Q1019.52 78.45 1019.06 78.02Q1018.61 77.59 1018.61 76.98Q1018.61 76.37 1019.06 75.93Q1019.52 75.5 1020.16 75.5Q1020.8 75.5 1021.25 75.93Q1021.71 76.37 1021.71 76.98Q1021.71 77.59 1021.25 78.02Q1020.8 78.45 1020.16 78.45ZM1027.25 89.83 1027.21 87.13H1027.66L1033.86 80.82H1036.56L1029.95 87.5H1029.76ZM1025.22 95V76.09H1027.4V95ZM1034.23 95 1028.69 87.98 1030.24 86.47 1037 95ZM1041.39 89.83 1041.36 87.13H1041.8L1048.01 80.82H1050.7L1044.09 87.5H1043.91ZM1039.36 95V76.09H1041.54V95ZM1048.38 95 1042.84 87.98 1044.39 86.47 1051.14 95ZM1058.86 95.3Q1056.81 95.3 1055.33 94.39Q1053.85 93.48 1053.05 91.84Q1052.25 90.2 1052.25 88.02Q1052.25 85.84 1053.05 84.17Q1053.85 82.51 1055.29 81.57Q1056.72 80.63 1058.64 80.63Q1059.75 80.63 1060.83 81Q1061.91 81.37 1062.8 82.2Q1063.68 83.02 1064.21 84.38Q1064.74 85.74 1064.74 87.72V88.65H1053.8V86.76H1062.52Q1062.52 85.56 1062.04 84.62Q1061.57 83.68 1060.7 83.14Q1059.82 82.59 1058.64 82.59Q1057.34 82.59 1056.39 83.23Q1055.45 83.87 1054.94 84.9Q1054.43 85.92 1054.43 87.1V88.35Q1054.43 89.96 1054.99 91.07Q1055.55 92.18 1056.55 92.76Q1057.54 93.34 1058.86 93.34Q1059.72 93.34 1060.42 93.09Q1061.12 92.85 1061.62 92.35Q1062.13 91.86 1062.41 91.12L1064.51 91.71Q1064.18 92.78 1063.4 93.59Q1062.61 94.4 1061.46 94.85Q1060.3 95.3 1058.86 95.3ZM1074.23 80.82V82.66H1066.88V80.82ZM1069.02 77.42H1071.2V90.94Q1071.2 91.86 1071.47 92.32Q1071.74 92.77 1072.17 92.93Q1072.6 93.08 1073.08 93.08Q1073.44 93.08 1073.67 93.04Q1073.9 93 1074.04 92.97L1074.49 94.93Q1074.26 95.01 1073.87 95.1Q1073.47 95.18 1072.86 95.18Q1071.94 95.18 1071.06 94.79Q1070.17 94.39 1069.6 93.58Q1069.02 92.77 1069.02 91.53ZM1079.1 95.15Q1078.42 95.15 1077.93 94.66Q1077.44 94.17 1077.44 93.49Q1077.44 92.8 1077.93 92.31Q1078.42 91.82 1079.1 91.82Q1079.79 91.82 1080.27 92.31Q1080.76 92.8 1080.76 93.49Q1080.76 93.94 1080.54 94.32Q1080.31 94.7 1079.94 94.92Q1079.56 95.15 1079.1 95.15ZM1090.03 95.3Q1088.26 95.3 1086.9 94.4Q1085.55 93.5 1084.78 91.85Q1084.01 90.2 1084.01 87.95Q1084.01 85.71 1084.78 84.07Q1085.55 82.42 1086.91 81.53Q1088.28 80.63 1090.07 80.63Q1091.46 80.63 1092.26 81.09Q1093.07 81.55 1093.5 82.12Q1093.93 82.7 1094.17 83.07H1094.36V76.09H1096.53V95H1094.43V92.82H1094.17Q1093.93 93.21 1093.49 93.8Q1093.04 94.38 1092.22 94.84Q1091.4 95.3 1090.03 95.3ZM1090.33 93.34Q1091.64 93.34 1092.55 92.65Q1093.45 91.96 1093.92 90.74Q1094.39 89.52 1094.39 87.91Q1094.39 86.32 1093.93 85.13Q1093.47 83.93 1092.56 83.26Q1091.66 82.59 1090.33 82.59Q1088.94 82.59 1088.03 83.3Q1087.11 84 1086.65 85.21Q1086.19 86.41 1086.19 87.91Q1086.19 89.42 1086.66 90.66Q1087.13 91.89 1088.04 92.61Q1088.96 93.34 1090.33 93.34ZM1106.76 95.3Q1104.71 95.3 1103.23 94.39Q1101.75 93.48 1100.95 91.84Q1100.15 90.2 1100.15 88.02Q1100.15 85.84 1100.95 84.17Q1101.75 82.51 1103.19 81.57Q1104.62 80.63 1106.54 80.63Q1107.65 80.63 1108.73 81Q1109.81 81.37 1110.7 82.2Q1111.58 83.02 1112.11 84.38Q1112.64 85.74 1112.64 87.72V88.65H1101.7V86.76H1110.42Q1110.42 85.56 1109.94 84.62Q1109.47 83.68 1108.6 83.14Q1107.72 82.59 1106.54 82.59Q1105.24 82.59 1104.29 83.23Q1103.35 83.87 1102.84 84.9Q1102.33 85.92 1102.33 87.1V88.35Q1102.33 89.96 1102.89 91.07Q1103.45 92.18 1104.45 92.76Q1105.44 93.34 1106.76 93.34Q1107.62 93.34 1108.32 93.09Q1109.02 92.85 1109.52 92.35Q1110.03 91.86 1110.31 91.12L1112.41 91.71Q1112.08 92.78 1111.3 93.59Q1110.51 94.4 1109.36 94.85Q1108.2 95.3 1106.76 95.3ZM1127.11 80.82 1121.87 95H1119.65L1114.41 80.82H1116.77L1120.69 92.12H1120.84L1124.75 80.82Z"/>
  <path fill="#FFFFFF" d="M71.04 299.65 83.62 291.64Q86.33 297.05 90.54 299.7Q94.75 302.35 99.74 302.35Q104.74 302.35 107.7 300.06Q110.66 297.78 110.66 294.03Q110.66 290.6 108.48 288.42Q106.3 286.23 102.92 284.93Q99.54 283.63 94.02 282.18Q85.29 279.89 80.45 274.79Q75.62 269.7 75.62 261.69Q75.62 255.24 78.84 250.3Q82.06 245.36 87.89 242.66Q93.71 239.95 101.3 239.95Q109.52 239.95 115.29 243.38Q121.06 246.82 125.33 253.47L112.85 261.17Q110.14 256.8 107.34 254.88Q104.53 252.95 100.58 252.95Q96.1 252.95 93.3 255.14Q90.49 257.32 90.49 260.96Q90.49 264.6 93.3 266.42Q96.1 268.24 102.03 270.11Q109.31 272.4 113.68 274.38Q118.05 276.35 121.79 280.98Q125.54 285.61 125.54 293.2Q125.54 299.75 122.31 304.8Q119.09 309.84 113.06 312.6Q107.02 315.35 98.91 315.35Q89.86 315.35 82.74 311.56Q75.62 307.76 71.04 299.65ZM129.38 286.96Q129.38 279.16 133.13 272.66Q136.87 266.16 143.53 262.36Q150.18 258.57 158.4 258.57Q165.58 258.57 171.3 261.22Q177.02 263.87 180.45 268.66L169.63 277.5Q167.76 274.69 164.74 273.02Q161.73 271.36 158.19 271.36Q153.82 271.36 150.5 273.49Q147.17 275.62 145.3 279.16Q143.42 282.7 143.42 286.96Q143.42 291.12 145.35 294.71Q147.27 298.3 150.7 300.43Q154.14 302.56 158.5 302.56Q162.35 302.56 165.16 300.9Q167.97 299.23 170.26 296.11L180.45 304.95Q172.34 315.35 157.26 315.35Q149.66 315.35 143.27 311.56Q136.87 307.76 133.13 301.21Q129.38 294.66 129.38 286.96ZM185.96 238.08H200V267.41Q204.37 258.67 216.33 258.67Q222.15 258.67 226.83 261.43Q231.51 264.18 234.22 269.23Q236.92 274.27 236.92 280.93V314H222.88V284.36Q222.88 277.6 219.76 274.27Q216.64 270.94 211.23 270.94Q206.45 270.94 203.22 274.32Q200 277.7 200 284.36V314H185.96ZM242.64 287.06Q242.64 279.37 246.28 272.82Q249.92 266.26 256.32 262.42Q262.71 258.57 270.62 258.57Q278.52 258.57 284.81 262.42Q291.1 266.26 294.59 272.76Q298.07 279.26 298.07 287.06Q298.07 289.66 297.66 292.06H257.2Q258.45 296.94 261.93 299.91Q265.42 302.87 270.62 302.87Q274.98 302.87 278.42 300.84Q281.85 298.82 283.82 295.59L294.74 303.81Q291.42 309.01 284.97 312.18Q278.52 315.35 270.62 315.35Q262.4 315.35 256.06 311.56Q249.71 307.76 246.18 301.31Q242.64 294.86 242.64 287.06ZM283.93 281.55Q282.68 276.87 279.04 273.75Q275.4 270.63 270.41 270.63Q265.52 270.63 261.93 273.65Q258.34 276.66 257.2 281.55ZM301.4 287.17Q301.4 279.47 304.99 272.97Q308.58 266.47 314.71 262.62Q320.85 258.78 328.13 258.78Q334.78 258.78 338.84 261.22Q342.9 263.66 345.18 268.24V238.08H359.22V314H345.6V305.16Q343.21 310.05 339.1 312.7Q334.99 315.35 328.13 315.35Q320.85 315.35 314.71 311.56Q308.58 307.76 304.99 301.31Q301.4 294.86 301.4 287.17ZM330.42 302.66Q334.89 302.66 338.37 300.58Q341.86 298.5 343.73 294.97Q345.6 291.43 345.6 287.17Q345.6 282.9 343.73 279.32Q341.86 275.73 338.37 273.6Q334.89 271.46 330.42 271.46Q326.05 271.46 322.62 273.6Q319.18 275.73 317.31 279.26Q315.44 282.8 315.44 287.06Q315.44 291.22 317.36 294.81Q319.29 298.4 322.67 300.53Q326.05 302.66 330.42 302.66ZM367.02 292.99V259.92H381.06V289.56Q381.06 302.98 391.88 302.98Q396.66 302.98 399.89 299.6Q403.11 296.22 403.11 289.56V259.92H417.15V314H403.53V305.89Q401.55 310.67 397.7 312.96Q393.86 315.25 387.62 315.25Q381.79 315.25 377.11 312.49Q372.43 309.74 369.73 304.69Q367.02 299.65 367.02 292.99ZM425.47 238.08H439.51V314H425.47ZM447.83 259.92H461.87V314H447.83ZM454.8 238.91Q458.44 238.91 460.83 241.3Q463.22 243.7 463.22 247.13Q463.22 250.66 460.83 253.06Q458.44 255.45 454.8 255.45Q451.26 255.45 448.82 253Q446.38 250.56 446.38 247.13Q446.38 243.7 448.82 241.3Q451.26 238.91 454.8 238.91ZM470.19 259.92H484.02V267.82Q488.29 258.67 500.56 258.67Q506.38 258.67 511.06 261.43Q515.74 264.18 518.45 269.23Q521.15 274.27 521.15 280.93V314H507.11V284.36Q507.11 277.6 503.99 274.27Q500.87 270.94 495.46 270.94Q490.68 270.94 487.46 274.32Q484.23 277.7 484.23 284.36V314H470.19ZM529.37 325.96 538.1 315.66Q541.74 319.82 545.85 321.49Q549.96 323.15 555.37 323.15Q559.11 323.15 562.34 321.23Q565.56 319.3 567.48 315.92Q569.41 312.54 569.41 308.38V305.99Q567.02 310.05 563.17 312.18Q559.32 314.31 553.08 314.31Q545.8 314.31 539.77 310.62Q533.74 306.93 530.3 300.53Q526.87 294.14 526.87 286.44Q526.87 278.74 530.3 272.35Q533.74 265.95 539.77 262.26Q545.8 258.57 553.08 258.57Q559.53 258.57 563.43 260.8Q567.33 263.04 569.62 267.3V259.92H583.45V309.22Q583.45 317.43 579.86 323.52Q576.27 329.6 569.88 332.88Q563.48 336.15 555.26 336.15Q546.74 336.15 540.39 333.81Q534.05 331.47 529.37 325.96ZM555.37 301.52Q562.13 301.52 566.08 297.26Q570.03 292.99 570.03 286.44Q570.03 279.89 566.08 275.62Q562.13 271.36 555.37 271.36Q548.71 271.36 544.81 275.62Q540.91 279.89 540.91 286.44Q540.91 292.89 544.81 297.2Q548.71 301.52 555.37 301.52Z"/>
  <path fill="#FFFFFF" d="M96.1 344.08H101.93V356.04H98.29Q92.15 356.04 92.15 362.49V365.92H103.18V377.88H92.15V420H78.11V377.88H70.52V365.92H78.11V362.28Q78.11 354.06 83 349.07Q87.89 344.08 96.1 344.08ZM103.18 393.06Q103.18 385.37 106.92 378.82Q110.66 372.26 117.22 368.47Q123.77 364.67 131.98 364.67Q140.2 364.67 146.75 368.47Q153.3 372.26 157.05 378.82Q160.79 385.37 160.79 393.06Q160.79 400.76 157.05 407.26Q153.3 413.76 146.75 417.56Q140.2 421.35 131.98 421.35Q123.77 421.35 117.22 417.56Q110.66 413.76 106.92 407.26Q103.18 400.76 103.18 393.06ZM131.98 408.56Q136.35 408.56 139.73 406.48Q143.11 404.4 144.93 400.86Q146.75 397.33 146.75 393.06Q146.75 388.8 144.88 385.26Q143.01 381.73 139.68 379.6Q136.35 377.46 131.98 377.46Q127.62 377.46 124.29 379.6Q120.96 381.73 119.09 385.26Q117.22 388.8 117.22 393.06Q117.22 397.33 119.04 400.86Q120.86 404.4 124.24 406.48Q127.62 408.56 131.98 408.56ZM167.03 365.92H180.66V376.22Q182.11 370.29 186.32 367.27Q190.54 364.26 197.4 364.67V377.88H195.42Q189.18 377.88 185.13 381.78Q181.07 385.68 181.07 392.34V420H167.03ZM223.09 403.26V377.88H215.5V365.92H223.09V355L237.13 353.54V365.92H248.57V377.88H237.13V402.53Q237.13 407.52 241.5 407.52H247.32V420H239.62Q231.41 420 227.25 415.94Q223.09 411.89 223.09 403.26ZM249.71 393.06Q249.71 385.37 253.35 378.82Q256.99 372.26 263.39 368.42Q269.78 364.57 277.69 364.57Q285.59 364.57 291.88 368.42Q298.18 372.26 301.66 378.76Q305.14 385.26 305.14 393.06Q305.14 395.66 304.73 398.06H264.27Q265.52 402.94 269 405.91Q272.49 408.87 277.69 408.87Q282.06 408.87 285.49 406.84Q288.92 404.82 290.9 401.59L301.82 409.81Q298.49 415.01 292.04 418.18Q285.59 421.35 277.69 421.35Q269.47 421.35 263.13 417.56Q256.78 413.76 253.25 407.31Q249.71 400.86 249.71 393.06ZM291 387.55Q289.75 382.87 286.11 379.75Q282.47 376.63 277.48 376.63Q272.59 376.63 269 379.65Q265.42 382.66 264.27 387.55ZM308.47 393.17Q308.47 385.47 312.06 378.97Q315.65 372.47 321.78 368.62Q327.92 364.78 335.2 364.78Q341.86 364.78 345.96 367.27Q350.07 369.77 352.36 374.45V365.92H366.3V420H352.67V411.16Q350.28 416.05 346.17 418.7Q342.06 421.35 335.2 421.35Q327.92 421.35 321.78 417.56Q315.65 413.76 312.06 407.31Q308.47 400.86 308.47 393.17ZM337.49 408.66Q341.96 408.66 345.44 406.58Q348.93 404.5 350.8 400.97Q352.67 397.43 352.67 393.17Q352.67 388.9 350.8 385.32Q348.93 381.73 345.44 379.6Q341.96 377.46 337.49 377.46Q333.12 377.46 329.69 379.6Q326.26 381.73 324.38 385.26Q322.51 388.8 322.51 393.06Q322.51 397.22 324.44 400.81Q326.36 404.4 329.74 406.53Q333.12 408.66 337.49 408.66ZM374.62 365.92H388.45V373.82Q392.71 364.67 404.98 364.67Q410.7 364.67 415.33 367.32Q419.96 369.98 422.56 374.86Q425.37 369.77 429.68 367.22Q434 364.67 440.86 364.67Q446.69 364.67 451.37 367.43Q456.05 370.18 458.75 375.23Q461.46 380.27 461.46 386.93V420H447.42V390.36Q447.42 383.6 444.5 380.27Q441.59 376.94 436.6 376.94Q431.3 376.94 428.44 379.96Q425.58 382.98 425.58 390.36V420H411.54V390.36Q411.54 383.6 408.42 380.27Q405.3 376.94 399.89 376.94Q395.1 376.94 391.88 380.32Q388.66 383.7 388.66 390.36V420H374.62ZM465.3 411.89 474.77 403.26Q480.7 409.91 487.46 409.91Q490.99 409.91 492.97 408.35Q494.94 406.79 494.94 404.3Q494.94 402.01 493.02 400.71Q491.1 399.41 485.06 397.95Q475.18 395.56 471.8 391.4Q468.42 387.24 468.42 381.1Q468.42 373.82 473.83 369.2Q479.24 364.57 488.6 364.57Q495.36 364.57 499.99 366.65Q504.62 368.73 508.67 373.93L498.48 381.73Q494.84 375.9 488.91 375.9Q485.9 375.9 484.02 377.1Q482.15 378.3 482.15 380.69Q482.15 382.35 483.56 383.55Q484.96 384.74 489.43 385.89Q500.56 388.8 504.67 393.06Q508.78 397.33 508.78 403.88Q508.78 408.77 506.02 412.77Q503.26 416.78 498.48 419.06Q493.7 421.35 487.77 421.35Q474.14 421.35 465.3 411.89ZM511.17 412.2Q511.17 408.46 513.87 405.8Q516.58 403.15 520.53 403.15Q524.48 403.15 527.13 405.8Q529.78 408.46 529.78 412.2Q529.78 416.05 527.13 418.7Q524.48 421.35 520.53 421.35Q516.58 421.35 513.87 418.65Q511.17 415.94 511.17 412.2Z"/>
  <path fill="#A3A3A3" d="M74.99 508V483.27H83.35Q86.25 483.27 88.11 484.26Q89.97 485.24 90.86 486.96Q91.75 488.67 91.75 490.86Q91.75 493.04 90.86 494.73Q89.97 496.42 88.12 497.38Q86.27 498.34 83.4 498.34H76.64V495.64H83.3Q85.28 495.64 86.49 495.06Q87.71 494.48 88.26 493.41Q88.81 492.34 88.81 490.86Q88.81 489.37 88.25 488.26Q87.7 487.15 86.48 486.54Q85.26 485.93 83.25 485.93H77.99V508ZM86.63 496.89 92.72 508H89.24L83.25 496.89ZM103.68 508.39Q101.17 508.39 99.28 507.19Q97.39 506 96.33 503.85Q95.28 501.7 95.28 498.82Q95.28 495.93 96.33 493.76Q97.39 491.6 99.28 490.41Q101.17 489.21 103.68 489.21Q106.19 489.21 108.08 490.41Q109.97 491.6 111.03 493.76Q112.09 495.93 112.09 498.82Q112.09 501.7 111.03 503.85Q109.97 506 108.08 507.19Q106.19 508.39 103.68 508.39ZM103.68 505.83Q105.59 505.83 106.82 504.85Q108.05 503.87 108.64 502.28Q109.24 500.68 109.24 498.82Q109.24 496.96 108.64 495.36Q108.05 493.75 106.82 492.76Q105.59 491.77 103.68 491.77Q101.77 491.77 100.54 492.76Q99.31 493.75 98.72 495.36Q98.13 496.96 98.13 498.82Q98.13 500.68 98.72 502.28Q99.31 503.87 100.54 504.85Q101.77 505.83 103.68 505.83ZM128.12 500.42V489.45H130.97V508H128.12V504.86H127.93Q127.27 506.27 125.9 507.26Q124.52 508.24 122.42 508.24Q120.68 508.24 119.33 507.47Q117.98 506.71 117.2 505.16Q116.43 503.61 116.43 501.24V489.45H119.28V501.05Q119.28 503.07 120.42 504.28Q121.56 505.49 123.34 505.49Q124.4 505.49 125.51 504.95Q126.61 504.4 127.36 503.28Q128.12 502.16 128.12 500.42ZM139.03 496.84V508H136.18V489.45H138.94V492.35H139.18Q139.83 490.94 141.16 490.08Q142.49 489.21 144.59 489.21Q146.47 489.21 147.88 489.98Q149.3 490.75 150.08 492.3Q150.87 493.85 150.87 496.22V508H148.02V496.41Q148.02 494.22 146.88 493Q145.75 491.77 143.77 491.77Q142.4 491.77 141.33 492.36Q140.27 492.96 139.65 494.09Q139.03 495.23 139.03 496.84ZM163.09 508.39Q160.77 508.39 158.99 507.21Q157.22 506.03 156.22 503.88Q155.21 501.72 155.21 498.78Q155.21 495.85 156.22 493.7Q157.22 491.56 159 490.38Q160.79 489.21 163.13 489.21Q164.94 489.21 166 489.81Q167.06 490.41 167.62 491.16Q168.18 491.92 168.49 492.4H168.74V483.27H171.59V508H168.83V505.15H168.49Q168.18 505.66 167.6 506.42Q167.02 507.19 165.95 507.79Q164.87 508.39 163.09 508.39ZM163.47 505.83Q165.19 505.83 166.37 504.93Q167.55 504.03 168.17 502.43Q168.78 500.83 168.78 498.73Q168.78 496.65 168.18 495.09Q167.58 493.52 166.39 492.65Q165.21 491.77 163.47 491.77Q161.66 491.77 160.46 492.7Q159.26 493.62 158.66 495.2Q158.06 496.77 158.06 498.73Q158.06 500.71 158.67 502.32Q159.28 503.93 160.48 504.88Q161.68 505.83 163.47 505.83ZM187.81 496.07V498.73H176.99V496.07ZM192.84 508V489.45H195.59V492.26H195.78Q196.29 490.88 197.62 490.02Q198.94 489.16 200.61 489.16Q200.92 489.16 201.4 489.18Q201.87 489.19 202.11 489.21V492.11Q201.96 492.07 201.45 492Q200.94 491.92 200.37 491.92Q199.02 491.92 197.96 492.48Q196.9 493.04 196.29 494.02Q195.68 495.01 195.68 496.26V508ZM212.44 508.39Q209.93 508.39 208.04 507.19Q206.15 506 205.1 503.85Q204.04 501.7 204.04 498.82Q204.04 495.93 205.1 493.76Q206.15 491.6 208.04 490.41Q209.93 489.21 212.44 489.21Q214.95 489.21 216.84 490.41Q218.73 491.6 219.79 493.76Q220.85 495.93 220.85 498.82Q220.85 501.7 219.79 503.85Q218.73 506 216.84 507.19Q214.95 508.39 212.44 508.39ZM212.44 505.83Q214.35 505.83 215.58 504.85Q216.81 503.87 217.41 502.28Q218 500.68 218 498.82Q218 496.96 217.41 495.36Q216.81 493.75 215.58 492.76Q214.35 491.77 212.44 491.77Q210.54 491.77 209.3 492.76Q208.07 493.75 207.48 495.36Q206.89 496.96 206.89 498.82Q206.89 500.68 207.48 502.28Q208.07 503.87 209.3 504.85Q210.54 505.83 212.44 505.83ZM225.58 508V483.27H228.43V492.4H228.67Q228.98 491.92 229.55 491.16Q230.11 490.41 231.16 489.81Q232.22 489.21 234.03 489.21Q236.37 489.21 238.16 490.38Q239.95 491.56 240.95 493.7Q241.95 495.85 241.95 498.78Q241.95 501.72 240.95 503.88Q239.95 506.03 238.17 507.21Q236.4 508.39 234.08 508.39Q232.29 508.39 231.22 507.79Q230.14 507.19 229.56 506.42Q228.98 505.66 228.67 505.15H228.33V508ZM228.38 498.73Q228.38 500.83 229 502.43Q229.61 504.03 230.8 504.93Q231.98 505.83 233.69 505.83Q235.48 505.83 236.68 504.88Q237.88 503.93 238.49 502.32Q239.1 500.71 239.1 498.73Q239.1 496.77 238.5 495.2Q237.91 493.62 236.71 492.7Q235.5 491.77 233.69 491.77Q231.95 491.77 230.77 492.65Q229.59 493.52 228.98 495.09Q228.38 496.65 228.38 498.73ZM246.3 508V489.45H249.15V508ZM247.75 486.36Q246.91 486.36 246.32 485.8Q245.72 485.23 245.72 484.43Q245.72 483.63 246.32 483.07Q246.91 482.5 247.75 482.5Q248.58 482.5 249.18 483.07Q249.78 483.63 249.78 484.43Q249.78 485.23 249.18 485.8Q248.58 486.36 247.75 486.36ZM257.21 496.84V508H254.36V489.45H257.12V492.35H257.36Q258.01 490.94 259.34 490.08Q260.67 489.21 262.77 489.21Q264.65 489.21 266.06 489.98Q267.48 490.75 268.26 492.3Q269.05 493.85 269.05 496.22V508H266.2V496.41Q266.2 494.22 265.06 493Q263.93 491.77 261.95 491.77Q260.58 491.77 259.51 492.36Q258.44 492.96 257.83 494.09Q257.21 495.23 257.21 496.84ZM278.51 504.62 278.32 505.92Q278.11 507.3 277.7 508.87Q277.28 510.44 276.83 511.83Q276.39 513.22 276.1 514.04H273.92Q274.08 513.26 274.33 512Q274.59 510.73 274.85 509.17Q275.11 507.6 275.28 505.97L275.42 504.62ZM297.54 508 291.89 489.45H294.88L298.89 503.65H299.09L303.05 489.45H306.09L310 503.61H310.19L314.2 489.45H317.2L311.55 508H308.74L304.69 493.75H304.4L300.34 508ZM328.11 508.39Q325.43 508.39 323.49 507.2Q321.55 506.01 320.51 503.86Q319.47 501.72 319.47 498.87Q319.47 496.02 320.51 493.84Q321.55 491.66 323.43 490.44Q325.31 489.21 327.82 489.21Q329.27 489.21 330.68 489.7Q332.1 490.18 333.25 491.26Q334.41 492.34 335.1 494.12Q335.79 495.89 335.79 498.49V499.69H321.49V497.23H332.89Q332.89 495.66 332.27 494.43Q331.65 493.2 330.51 492.49Q329.37 491.77 327.82 491.77Q326.12 491.77 324.88 492.61Q323.64 493.45 322.98 494.79Q322.32 496.13 322.32 497.66V499.31Q322.32 501.41 323.05 502.86Q323.78 504.32 325.08 505.07Q326.38 505.83 328.11 505.83Q329.23 505.83 330.15 505.51Q331.06 505.19 331.72 504.54Q332.38 503.89 332.75 502.93L335.5 503.7Q335.07 505.1 334.04 506.16Q333.01 507.22 331.5 507.8Q329.99 508.39 328.11 508.39ZM340.14 508V489.45H342.99V508ZM341.59 486.36Q340.75 486.36 340.15 485.8Q339.56 485.23 339.56 484.43Q339.56 483.63 340.15 483.07Q340.75 482.5 341.59 482.5Q342.42 482.5 343.02 483.07Q343.61 483.63 343.61 484.43Q343.61 485.23 343.02 485.8Q342.42 486.36 341.59 486.36ZM355.69 515.34Q353.62 515.34 352.14 514.82Q350.65 514.29 349.67 513.44Q348.68 512.59 348.11 511.62L350.38 510.03Q350.76 510.54 351.35 511.19Q351.94 511.85 352.98 512.34Q354.01 512.83 355.69 512.83Q357.93 512.83 359.39 511.74Q360.86 510.66 360.86 508.34V504.57H360.61Q360.3 505.08 359.73 505.82Q359.15 506.56 358.08 507.14Q357.02 507.71 355.2 507.71Q352.96 507.71 351.18 506.65Q349.4 505.59 348.36 503.56Q347.33 501.53 347.33 498.63Q347.33 495.78 348.33 493.66Q349.34 491.54 351.12 490.38Q352.91 489.21 355.25 489.21Q357.06 489.21 358.13 489.81Q359.2 490.41 359.77 491.16Q360.35 491.92 360.66 492.4H360.95V489.45H363.7V508.53Q363.7 510.92 362.62 512.43Q361.54 513.93 359.73 514.63Q357.91 515.34 355.69 515.34ZM355.59 505.15Q357.31 505.15 358.49 504.37Q359.67 503.58 360.29 502.11Q360.9 500.63 360.9 498.58Q360.9 496.58 360.3 495.04Q359.7 493.51 358.51 492.64Q357.33 491.77 355.59 491.77Q353.78 491.77 352.58 492.69Q351.38 493.61 350.78 495.15Q350.18 496.7 350.18 498.58Q350.18 500.51 350.79 501.99Q351.4 503.47 352.6 504.31Q353.8 505.15 355.59 505.15ZM371.77 496.84V508H368.92V483.27H371.77V492.35H372.01Q372.66 490.92 373.97 490.06Q375.28 489.21 377.47 489.21Q379.36 489.21 380.79 489.97Q382.21 490.72 383 492.27Q383.8 493.83 383.8 496.22V508H380.95V496.41Q380.95 494.2 379.81 492.99Q378.66 491.77 376.65 491.77Q375.25 491.77 374.14 492.36Q373.04 492.96 372.4 494.09Q371.77 495.23 371.77 496.84ZM397.08 489.45V491.87H387.47V489.45ZM390.27 485.01H393.12V502.69Q393.12 503.89 393.47 504.49Q393.83 505.09 394.39 505.29Q394.95 505.49 395.58 505.49Q396.05 505.49 396.35 505.43Q396.65 505.38 396.84 505.34L397.41 507.9Q397.12 508.01 396.61 508.13Q396.09 508.24 395.29 508.24Q394.08 508.24 392.93 507.72Q391.78 507.2 391.02 506.14Q390.27 505.08 390.27 503.46ZM408.96 508.39Q406.28 508.39 404.34 507.2Q402.4 506.01 401.36 503.86Q400.31 501.72 400.31 498.87Q400.31 496.02 401.36 493.84Q402.4 491.66 404.28 490.44Q406.16 489.21 408.67 489.21Q410.12 489.21 411.53 489.7Q412.94 490.18 414.1 491.26Q415.26 492.34 415.95 494.12Q416.64 495.89 416.64 498.49V499.69H402.34V497.23H413.74Q413.74 495.66 413.12 494.43Q412.5 493.2 411.35 492.49Q410.21 491.77 408.67 491.77Q406.97 491.77 405.73 492.61Q404.49 493.45 403.83 494.79Q403.16 496.13 403.16 497.66V499.31Q403.16 501.41 403.89 502.86Q404.62 504.32 405.93 505.07Q407.23 505.83 408.96 505.83Q410.08 505.83 410.99 505.51Q411.9 505.19 412.57 504.54Q413.23 503.89 413.59 502.93L416.35 503.7Q415.91 505.1 414.89 506.16Q413.86 507.22 412.35 507.8Q410.84 508.39 408.96 508.39ZM427.99 508.39Q425.67 508.39 423.89 507.21Q422.12 506.03 421.12 503.88Q420.11 501.72 420.11 498.78Q420.11 495.85 421.12 493.7Q422.12 491.56 423.9 490.38Q425.69 489.21 428.03 489.21Q429.85 489.21 430.9 489.81Q431.96 490.41 432.52 491.16Q433.08 491.92 433.39 492.4H433.64V483.27H436.49V508H433.73V505.15H433.39Q433.08 505.66 432.5 506.42Q431.92 507.19 430.85 507.79Q429.77 508.39 427.99 508.39ZM428.37 505.83Q430.09 505.83 431.27 504.93Q432.45 504.03 433.07 502.43Q433.68 500.83 433.68 498.73Q433.68 496.65 433.08 495.09Q432.48 493.52 431.29 492.65Q430.11 491.77 428.37 491.77Q426.56 491.77 425.36 492.7Q424.16 493.62 423.56 495.2Q422.96 496.77 422.96 498.73Q422.96 500.71 423.57 502.32Q424.18 503.93 425.38 504.88Q426.59 505.83 428.37 505.83ZM451.65 508V489.45H454.4V492.26H454.6Q455.1 490.88 456.43 490.02Q457.76 489.16 459.43 489.16Q459.74 489.16 460.21 489.18Q460.68 489.19 460.92 489.21V492.11Q460.78 492.07 460.27 492Q459.75 491.92 459.18 491.92Q457.83 491.92 456.78 492.48Q455.72 493.04 455.11 494.02Q454.5 495.01 454.5 496.26V508ZM471.26 508.39Q468.75 508.39 466.86 507.19Q464.97 506 463.91 503.85Q462.86 501.7 462.86 498.82Q462.86 495.93 463.91 493.76Q464.97 491.6 466.86 490.41Q468.75 489.21 471.26 489.21Q473.77 489.21 475.66 490.41Q477.55 491.6 478.61 493.76Q479.66 495.93 479.66 498.82Q479.66 501.7 478.61 503.85Q477.55 506 475.66 507.19Q473.77 508.39 471.26 508.39ZM471.26 505.83Q473.17 505.83 474.4 504.85Q475.63 503.87 476.22 502.28Q476.81 500.68 476.81 498.82Q476.81 496.96 476.22 495.36Q475.63 493.75 474.4 492.76Q473.17 491.77 471.26 491.77Q469.35 491.77 468.12 492.76Q466.89 493.75 466.3 495.36Q465.7 496.96 465.7 498.82Q465.7 500.68 466.3 502.28Q466.89 503.87 468.12 504.85Q469.35 505.83 471.26 505.83ZM495.7 500.42V489.45H498.55V508H495.7V504.86H495.5Q494.85 506.27 493.47 507.26Q492.1 508.24 490 508.24Q488.26 508.24 486.91 507.47Q485.55 506.71 484.78 505.16Q484.01 503.61 484.01 501.24V489.45H486.86V501.05Q486.86 503.07 488 504.28Q489.14 505.49 490.91 505.49Q491.98 505.49 493.08 504.95Q494.19 504.4 494.94 503.28Q495.7 502.16 495.7 500.42ZM511.83 489.45V491.87H502.22V489.45ZM505.02 485.01H507.87V502.69Q507.87 503.89 508.22 504.49Q508.58 505.09 509.14 505.29Q509.7 505.49 510.33 505.49Q510.8 505.49 511.1 505.43Q511.4 505.38 511.59 505.34L512.16 507.9Q511.88 508.01 511.36 508.13Q510.84 508.24 510.04 508.24Q508.83 508.24 507.68 507.72Q506.53 507.2 505.77 506.14Q505.02 505.08 505.02 503.46ZM516.12 508V489.45H518.97V508ZM517.57 486.36Q516.74 486.36 516.14 485.8Q515.55 485.23 515.55 484.43Q515.55 483.63 516.14 483.07Q516.74 482.5 517.57 482.5Q518.41 482.5 519 483.07Q519.6 483.63 519.6 484.43Q519.6 485.23 519 485.8Q518.41 486.36 517.57 486.36ZM527.04 496.84V508H524.19V489.45H526.94V492.35H527.18Q527.84 490.94 529.16 490.08Q530.49 489.21 532.59 489.21Q534.48 489.21 535.89 489.98Q537.3 490.75 538.09 492.3Q538.87 493.85 538.87 496.22V508H536.02V496.41Q536.02 494.22 534.89 493Q533.75 491.77 531.77 491.77Q530.41 491.77 529.34 492.36Q528.27 492.96 527.66 494.09Q527.04 495.23 527.04 496.84ZM551.57 515.34Q549.51 515.34 548.02 514.82Q546.54 514.29 545.56 513.44Q544.57 512.59 543.99 511.62L546.26 510.03Q546.65 510.54 547.24 511.19Q547.83 511.85 548.86 512.34Q549.9 512.83 551.57 512.83Q553.82 512.83 555.28 511.74Q556.74 510.66 556.74 508.34V504.57H556.5Q556.19 505.08 555.61 505.82Q555.04 506.56 553.97 507.14Q552.9 507.71 551.09 507.71Q548.85 507.71 547.06 506.65Q545.28 505.59 544.25 503.56Q543.22 501.53 543.22 498.63Q543.22 495.78 544.22 493.66Q545.22 491.54 547.01 490.38Q548.8 489.21 551.14 489.21Q552.95 489.21 554.02 489.81Q555.09 490.41 555.66 491.16Q556.23 491.92 556.55 492.4H556.84V489.45H559.59V508.53Q559.59 510.92 558.51 512.43Q557.43 513.93 555.61 514.63Q553.8 515.34 551.57 515.34ZM551.48 505.15Q553.19 505.15 554.38 504.37Q555.56 503.58 556.17 502.11Q556.79 500.63 556.79 498.58Q556.79 496.58 556.19 495.04Q555.58 493.51 554.4 492.64Q553.22 491.77 551.48 491.77Q549.67 491.77 548.46 492.69Q547.26 493.61 546.67 495.15Q546.07 496.7 546.07 498.58Q546.07 500.51 546.68 501.99Q547.29 503.47 548.49 504.31Q549.69 505.15 551.48 505.15ZM579.83 508.43Q578.06 508.43 576.63 507.76Q575.19 507.09 574.35 505.82Q573.5 504.55 573.5 502.74Q573.5 501.14 574.13 500.15Q574.76 499.15 575.81 498.58Q576.86 498.01 578.13 497.73Q579.4 497.45 580.7 497.28Q582.39 497.06 583.44 496.95Q584.5 496.83 584.99 496.55Q585.48 496.28 585.48 495.59V495.49Q585.48 493.7 584.51 492.71Q583.53 491.72 581.57 491.72Q579.52 491.72 578.37 492.62Q577.21 493.51 576.74 494.53L574.03 493.56Q574.76 491.87 575.97 490.92Q577.18 489.97 578.63 489.59Q580.07 489.21 581.47 489.21Q582.36 489.21 583.53 489.42Q584.69 489.64 585.79 490.29Q586.88 490.94 587.6 492.26Q588.33 493.57 588.33 495.78V508H585.48V505.49H585.33Q585.04 506.09 584.37 506.78Q583.69 507.47 582.57 507.95Q581.44 508.43 579.83 508.43ZM580.26 505.88Q581.95 505.88 583.12 505.21Q584.28 504.55 584.88 503.5Q585.48 502.45 585.48 501.29V498.68Q585.3 498.9 584.69 499.07Q584.08 499.25 583.29 499.37Q582.5 499.5 581.75 499.59Q581.01 499.68 580.55 499.74Q579.44 499.89 578.48 500.21Q577.52 500.53 576.94 501.16Q576.35 501.79 576.35 502.88Q576.35 504.37 577.45 505.12Q578.56 505.88 580.26 505.88ZM596.39 496.84V508H593.54V489.45H596.3V492.35H596.54Q597.19 490.94 598.52 490.08Q599.85 489.21 601.95 489.21Q603.83 489.21 605.24 489.98Q606.65 490.75 607.44 492.3Q608.22 493.85 608.22 496.22V508H605.38V496.41Q605.38 494.22 604.24 493Q603.11 491.77 601.12 491.77Q599.76 491.77 598.69 492.36Q597.62 492.96 597.01 494.09Q596.39 495.23 596.39 496.84ZM620.44 508.39Q618.12 508.39 616.35 507.21Q614.58 506.03 613.57 503.88Q612.57 501.72 612.57 498.78Q612.57 495.85 613.57 493.7Q614.58 491.56 616.36 490.38Q618.15 489.21 620.49 489.21Q622.3 489.21 623.36 489.81Q624.42 490.41 624.98 491.16Q625.54 491.92 625.85 492.4H626.09V483.27H628.94V508H626.19V505.15H625.85Q625.54 505.66 624.96 506.42Q624.38 507.19 623.3 507.79Q622.23 508.39 620.44 508.39ZM620.83 505.83Q622.54 505.83 623.73 504.93Q624.91 504.03 625.53 502.43Q626.14 500.83 626.14 498.73Q626.14 496.65 625.54 495.09Q624.93 493.52 623.75 492.65Q622.57 491.77 620.83 491.77Q619.02 491.77 617.82 492.7Q616.62 493.62 616.02 495.2Q615.42 496.77 615.42 498.73Q615.42 500.71 616.03 502.32Q616.64 503.93 617.84 504.88Q619.04 505.83 620.83 505.83Z"/>
  <path fill="#A3A3A3" d="M82.14 554.39Q79.53 554.39 77.65 553.15Q75.77 551.92 74.75 549.76Q73.74 547.6 73.74 544.82Q73.74 542 74.78 539.83Q75.83 537.66 77.7 536.44Q79.58 535.21 82.09 535.21Q84.05 535.21 85.62 535.94Q87.19 536.66 88.19 537.97Q89.19 539.27 89.43 541.01H86.59Q86.26 539.74 85.14 538.76Q84.03 537.77 82.14 537.77Q80.48 537.77 79.23 538.64Q77.98 539.5 77.28 541.06Q76.59 542.63 76.59 544.73Q76.59 546.88 77.27 548.47Q77.95 550.06 79.2 550.95Q80.45 551.83 82.14 551.83Q83.25 551.83 84.16 551.44Q85.06 551.05 85.69 550.33Q86.32 549.61 86.59 548.59H89.43Q89.19 550.23 88.25 551.54Q87.3 552.85 85.75 553.62Q84.19 554.39 82.14 554.39ZM101.12 554.39Q98.61 554.39 96.72 553.19Q94.83 552 93.78 549.85Q92.72 547.7 92.72 544.82Q92.72 541.93 93.78 539.76Q94.83 537.6 96.72 536.41Q98.61 535.21 101.12 535.21Q103.63 535.21 105.52 536.41Q107.41 537.6 108.47 539.76Q109.53 541.93 109.53 544.82Q109.53 547.7 108.47 549.85Q107.41 552 105.52 553.19Q103.63 554.39 101.12 554.39ZM101.12 551.83Q103.03 551.83 104.26 550.85Q105.49 549.87 106.08 548.28Q106.68 546.68 106.68 544.82Q106.68 542.96 106.08 541.36Q105.49 539.75 104.26 538.76Q103.03 537.77 101.12 537.77Q99.21 537.77 97.98 538.76Q96.75 539.75 96.16 541.36Q95.57 542.96 95.57 544.82Q95.57 546.68 96.16 548.28Q96.75 549.87 97.98 550.85Q99.21 551.83 101.12 551.83ZM116.72 529.27V554H113.87V529.27ZM124.79 529.27V554H121.94V529.27ZM137.78 554.39Q135.1 554.39 133.16 553.2Q131.22 552.01 130.18 549.86Q129.13 547.72 129.13 544.87Q129.13 542.02 130.18 539.84Q131.22 537.66 133.1 536.44Q134.98 535.21 137.49 535.21Q138.94 535.21 140.35 535.7Q141.76 536.18 142.92 537.26Q144.08 538.34 144.77 540.12Q145.46 541.89 145.46 544.49V545.69H131.16V543.23H142.56Q142.56 541.66 141.94 540.43Q141.32 539.2 140.18 538.49Q139.03 537.77 137.49 537.77Q135.79 537.77 134.55 538.61Q133.31 539.45 132.65 540.79Q131.98 542.13 131.98 543.66V545.31Q131.98 547.41 132.71 548.86Q133.44 550.32 134.75 551.07Q136.05 551.83 137.78 551.83Q138.9 551.83 139.81 551.51Q140.72 551.19 141.39 550.54Q142.05 549.89 142.41 548.93L145.17 549.7Q144.73 551.1 143.71 552.16Q142.68 553.22 141.17 553.8Q139.66 554.39 137.78 554.39ZM157.34 554.39Q154.73 554.39 152.85 553.15Q150.96 551.92 149.95 549.76Q148.93 547.6 148.93 544.82Q148.93 542 149.98 539.83Q151.02 537.66 152.9 536.44Q154.78 535.21 157.29 535.21Q159.25 535.21 160.82 535.94Q162.38 536.66 163.39 537.97Q164.39 539.27 164.63 541.01H161.78Q161.46 539.74 160.34 538.76Q159.22 537.77 157.34 537.77Q155.67 537.77 154.42 538.64Q153.17 539.5 152.48 541.06Q151.78 542.63 151.78 544.73Q151.78 546.88 152.47 548.47Q153.15 550.06 154.4 550.95Q155.65 551.83 157.34 551.83Q158.45 551.83 159.35 551.44Q160.26 551.05 160.89 550.33Q161.52 549.61 161.78 548.59H164.63Q164.39 550.23 163.44 551.54Q162.49 552.85 160.94 553.62Q159.39 554.39 157.34 554.39ZM176.85 535.45V537.87H167.24V535.45ZM170.04 531.01H172.89V548.69Q172.89 549.89 173.25 550.49Q173.6 551.09 174.16 551.29Q174.72 551.49 175.35 551.49Q175.82 551.49 176.12 551.43Q176.43 551.38 176.61 551.34L177.19 553.9Q176.9 554.01 176.38 554.13Q175.86 554.24 175.06 554.24Q173.86 554.24 172.7 553.72Q171.55 553.2 170.79 552.14Q170.04 551.08 170.04 549.46ZM181.15 554V535.45H184V554ZM182.6 532.36Q181.76 532.36 181.17 531.8Q180.57 531.23 180.57 530.43Q180.57 529.63 181.17 529.07Q181.76 528.5 182.6 528.5Q183.43 528.5 184.03 529.07Q184.62 529.63 184.62 530.43Q184.62 531.23 184.03 531.8Q183.43 532.36 182.6 532.36ZM204.38 535.45 197.52 554H194.62L187.76 535.45H190.86L195.97 550.23H196.17L201.29 535.45ZM215.24 554.39Q212.56 554.39 210.63 553.2Q208.69 552.01 207.64 549.86Q206.6 547.72 206.6 544.87Q206.6 542.02 207.64 539.84Q208.69 537.66 210.57 536.44Q212.44 535.21 214.95 535.21Q216.4 535.21 217.82 535.7Q219.23 536.18 220.39 537.26Q221.55 538.34 222.24 540.12Q222.92 541.89 222.92 544.49V545.69H208.63V543.23H220.03Q220.03 541.66 219.4 540.43Q218.78 539.2 217.64 538.49Q216.5 537.77 214.95 537.77Q213.25 537.77 212.01 538.61Q210.78 539.45 210.11 540.79Q209.45 542.13 209.45 543.66V545.31Q209.45 547.41 210.18 548.86Q210.91 550.32 212.21 551.07Q213.52 551.83 215.24 551.83Q216.37 551.83 217.28 551.51Q218.19 551.19 218.85 550.54Q219.52 549.89 219.88 548.93L222.63 549.7Q222.2 551.1 221.17 552.16Q220.15 553.22 218.64 553.8Q217.13 554.39 215.24 554.39ZM244.61 554.39Q241.93 554.39 239.99 553.2Q238.05 552.01 237.01 549.86Q235.96 547.72 235.96 544.87Q235.96 542.02 237.01 539.84Q238.05 537.66 239.93 536.44Q241.81 535.21 244.32 535.21Q245.77 535.21 247.18 535.7Q248.59 536.18 249.75 537.26Q250.91 538.34 251.6 540.12Q252.29 541.89 252.29 544.49V545.69H237.99V543.23H249.39Q249.39 541.66 248.77 540.43Q248.15 539.2 247 538.49Q245.86 537.77 244.32 537.77Q242.62 537.77 241.38 538.61Q240.14 539.45 239.48 540.79Q238.81 542.13 238.81 543.66V545.31Q238.81 547.41 239.54 548.86Q240.27 550.32 241.58 551.07Q242.88 551.83 244.61 551.83Q245.73 551.83 246.64 551.51Q247.55 551.19 248.22 550.54Q248.88 549.89 249.24 548.93L252 549.7Q251.56 551.1 250.54 552.16Q249.51 553.22 248 553.8Q246.49 554.39 244.61 554.39ZM271.22 535.45 264.36 554H261.46L254.61 535.45H257.7L262.82 550.23H263.01L268.13 535.45ZM282.09 554.39Q279.4 554.39 277.47 553.2Q275.53 552.01 274.48 549.86Q273.44 547.72 273.44 544.87Q273.44 542.02 274.48 539.84Q275.53 537.66 277.41 536.44Q279.28 535.21 281.8 535.21Q283.24 535.21 284.66 535.7Q286.07 536.18 287.23 537.26Q288.39 538.34 289.08 540.12Q289.76 541.89 289.76 544.49V545.69H275.47V543.23H286.87Q286.87 541.66 286.24 540.43Q285.62 539.2 284.48 538.49Q283.34 537.77 281.8 537.77Q280.09 537.77 278.86 538.61Q277.62 539.45 276.95 540.79Q276.29 542.13 276.29 543.66V545.31Q276.29 547.41 277.02 548.86Q277.75 550.32 279.05 551.07Q280.36 551.83 282.09 551.83Q283.21 551.83 284.12 551.51Q285.03 551.19 285.7 550.54Q286.36 549.89 286.72 548.93L289.47 549.7Q289.04 551.1 288.01 552.16Q286.99 553.22 285.48 553.8Q283.97 554.39 282.09 554.39ZM296.96 542.84V554H294.11V535.45H296.86V538.35H297.11Q297.76 536.94 299.09 536.08Q300.41 535.21 302.51 535.21Q304.4 535.21 305.81 535.98Q307.22 536.75 308.01 538.3Q308.79 539.85 308.79 542.22V554H305.94V542.41Q305.94 540.22 304.81 539Q303.67 537.77 301.69 537.77Q300.33 537.77 299.26 538.36Q298.19 538.96 297.58 540.09Q296.96 541.23 296.96 542.84ZM322.07 535.45V537.87H312.46V535.45ZM315.26 531.01H318.11V548.69Q318.11 549.89 318.47 550.49Q318.83 551.09 319.39 551.29Q319.95 551.49 320.58 551.49Q321.05 551.49 321.35 551.43Q321.65 551.38 321.83 551.34L322.41 553.9Q322.12 554.01 321.6 554.13Q321.08 554.24 320.29 554.24Q319.08 554.24 317.93 553.72Q316.77 553.2 316.02 552.14Q315.26 551.08 315.26 549.46ZM339.17 539.61 336.61 540.33Q336.37 539.69 335.9 539.08Q335.44 538.47 334.64 538.07Q333.85 537.68 332.6 537.68Q330.9 537.68 329.77 538.45Q328.64 539.23 328.64 540.43Q328.64 541.49 329.41 542.11Q330.19 542.72 331.83 543.13L334.58 543.81Q337.07 544.41 338.29 545.65Q339.51 546.89 339.51 548.83Q339.51 550.43 338.6 551.68Q337.69 552.94 336.06 553.66Q334.43 554.39 332.26 554.39Q329.43 554.39 327.57 553.15Q325.71 551.92 325.21 549.56L327.92 548.88Q328.3 550.38 329.38 551.13Q330.47 551.88 332.22 551.88Q334.21 551.88 335.39 551.02Q336.56 550.17 336.56 548.98Q336.56 548.01 335.89 547.35Q335.21 546.7 333.81 546.37L330.72 545.64Q328.17 545.04 326.98 543.77Q325.79 542.49 325.79 540.57Q325.79 539 326.68 537.8Q327.57 536.59 329.11 535.9Q330.65 535.21 332.6 535.21Q335.36 535.21 336.93 536.42Q338.51 537.63 339.17 539.61ZM345.88 554.19Q344.99 554.19 344.35 553.55Q343.71 552.91 343.71 552.02Q343.71 551.13 344.35 550.49Q344.99 549.85 345.88 549.85Q346.78 549.85 347.42 550.49Q348.06 551.13 348.06 552.02Q348.06 552.61 347.76 553.11Q347.47 553.6 346.98 553.9Q346.49 554.19 345.88 554.19ZM383.99 541.64Q383.99 545.55 382.58 548.4Q381.16 551.25 378.7 552.79Q376.24 554.34 373.07 554.34Q369.91 554.34 367.45 552.79Q364.98 551.25 363.57 548.4Q362.16 545.55 362.16 541.64Q362.16 537.72 363.57 534.88Q364.98 532.03 367.45 530.48Q369.91 528.93 373.07 528.93Q376.24 528.93 378.7 530.48Q381.16 532.03 382.58 534.88Q383.99 537.72 383.99 541.64ZM381.09 541.64Q381.09 538.42 380.02 536.22Q378.95 534.01 377.14 532.87Q375.32 531.74 373.07 531.74Q370.83 531.74 369.01 532.87Q367.19 534.01 366.13 536.22Q365.06 538.42 365.06 541.64Q365.06 544.85 366.13 547.06Q367.19 549.27 369.01 550.4Q370.83 551.54 373.07 551.54Q375.32 551.54 377.14 550.4Q378.95 549.27 380.02 547.06Q381.09 544.85 381.09 541.64ZM388.62 560.95V535.45H391.38V538.4H391.72Q392.03 537.92 392.59 537.16Q393.15 536.41 394.21 535.81Q395.27 535.21 397.08 535.21Q399.42 535.21 401.21 536.38Q402.99 537.56 404 539.7Q405 541.85 405 544.78Q405 547.72 404 549.88Q402.99 552.03 401.22 553.21Q399.44 554.39 397.12 554.39Q395.34 554.39 394.26 553.79Q393.19 553.19 392.61 552.42Q392.03 551.66 391.72 551.15H391.47V560.95ZM391.43 544.73Q391.43 546.83 392.04 548.43Q392.66 550.03 393.84 550.93Q395.02 551.83 396.74 551.83Q398.53 551.83 399.73 550.88Q400.93 549.93 401.54 548.32Q402.15 546.71 402.15 544.73Q402.15 542.77 401.55 541.2Q400.95 539.62 399.75 538.7Q398.55 537.77 396.74 537.77Q395 537.77 393.82 538.65Q392.63 539.52 392.03 541.09Q391.43 542.65 391.43 544.73ZM417.12 554.39Q414.44 554.39 412.5 553.2Q410.56 552.01 409.52 549.86Q408.47 547.72 408.47 544.87Q408.47 542.02 409.52 539.84Q410.56 537.66 412.44 536.44Q414.32 535.21 416.83 535.21Q418.28 535.21 419.69 535.7Q421.1 536.18 422.26 537.26Q423.42 538.34 424.11 540.12Q424.8 541.89 424.8 544.49V545.69H410.5V543.23H421.9Q421.9 541.66 421.28 540.43Q420.66 539.2 419.52 538.49Q418.38 537.77 416.83 537.77Q415.13 537.77 413.89 538.61Q412.65 539.45 411.99 540.79Q411.32 542.13 411.32 543.66V545.31Q411.32 547.41 412.05 548.86Q412.78 550.32 414.09 551.07Q415.39 551.83 417.12 551.83Q418.24 551.83 419.15 551.51Q420.07 551.19 420.73 550.54Q421.39 549.89 421.76 548.93L424.51 549.7Q424.07 551.1 423.05 552.16Q422.02 553.22 420.51 553.8Q419 554.39 417.12 554.39ZM431.99 542.84V554H429.14V535.45H431.9V538.35H432.14Q432.79 536.94 434.12 536.08Q435.45 535.21 437.55 535.21Q439.43 535.21 440.84 535.98Q442.26 536.75 443.04 538.3Q443.83 539.85 443.83 542.22V554H440.98V542.41Q440.98 540.22 439.84 539Q438.71 537.77 436.73 537.77Q435.36 537.77 434.29 538.36Q433.23 538.96 432.61 540.09Q431.99 541.23 431.99 542.84ZM471.74 539.61 469.18 540.33Q468.94 539.69 468.48 539.08Q468.01 538.47 467.21 538.07Q466.42 537.68 465.17 537.68Q463.47 537.68 462.34 538.45Q461.21 539.23 461.21 540.43Q461.21 541.49 461.99 542.11Q462.76 542.72 464.4 543.13L467.15 543.81Q469.64 544.41 470.86 545.65Q472.08 546.89 472.08 548.83Q472.08 550.43 471.17 551.68Q470.26 552.94 468.63 553.66Q467 554.39 464.84 554.39Q462 554.39 460.14 553.15Q458.28 551.92 457.78 549.56L460.49 548.88Q460.88 550.38 461.96 551.13Q463.04 551.88 464.79 551.88Q466.78 551.88 467.96 551.02Q469.13 550.17 469.13 548.98Q469.13 548.01 468.46 547.35Q467.78 546.7 466.38 546.37L463.29 545.64Q460.74 545.04 459.55 543.77Q458.36 542.49 458.36 540.57Q458.36 539 459.25 537.8Q460.14 536.59 461.68 535.9Q463.22 535.21 465.17 535.21Q467.93 535.21 469.5 536.42Q471.08 537.63 471.74 539.61ZM483.91 554.39Q481.4 554.39 479.51 553.19Q477.62 552 476.56 549.85Q475.51 547.7 475.51 544.82Q475.51 541.93 476.56 539.76Q477.62 537.6 479.51 536.41Q481.4 535.21 483.91 535.21Q486.42 535.21 488.31 536.41Q490.2 537.6 491.26 539.76Q492.32 541.93 492.32 544.82Q492.32 547.7 491.26 549.85Q490.2 552 488.31 553.19Q486.42 554.39 483.91 554.39ZM483.91 551.83Q485.82 551.83 487.05 550.85Q488.28 549.87 488.87 548.28Q489.47 546.68 489.47 544.82Q489.47 542.96 488.87 541.36Q488.28 539.75 487.05 538.76Q485.82 537.77 483.91 537.77Q482 537.77 480.77 538.76Q479.54 539.75 478.95 541.36Q478.36 542.96 478.36 544.82Q478.36 546.68 478.95 548.28Q479.54 549.87 480.77 550.85Q482 551.83 483.91 551.83ZM508.35 546.42V535.45H511.2V554H508.35V550.86H508.16Q507.5 552.27 506.13 553.26Q504.75 554.24 502.65 554.24Q500.91 554.24 499.56 553.47Q498.21 552.71 497.43 551.16Q496.66 549.61 496.66 547.24V535.45H499.51V547.05Q499.51 549.07 500.65 550.28Q501.79 551.49 503.57 551.49Q504.63 551.49 505.74 550.95Q506.84 550.4 507.59 549.28Q508.35 548.16 508.35 546.42ZM516.41 554V535.45H519.17V538.26H519.36Q519.87 536.88 521.2 536.02Q522.52 535.16 524.19 535.16Q524.5 535.16 524.98 535.18Q525.45 535.19 525.69 535.21V538.11Q525.54 538.07 525.03 538Q524.52 537.92 523.95 537.92Q522.6 537.92 521.54 538.48Q520.48 539.04 519.87 540.02Q519.26 541.01 519.26 542.26V554ZM536.02 554.39Q533.41 554.39 531.53 553.15Q529.65 551.92 528.63 549.76Q527.62 547.6 527.62 544.82Q527.62 542 528.66 539.83Q529.71 537.66 531.59 536.44Q533.46 535.21 535.97 535.21Q537.93 535.21 539.5 535.94Q541.07 536.66 542.07 537.97Q543.07 539.27 543.32 541.01H540.47Q540.14 539.74 539.02 538.76Q537.91 537.77 536.02 537.77Q534.36 537.77 533.11 538.64Q531.86 539.5 531.16 541.06Q530.47 542.63 530.47 544.73Q530.47 546.88 531.15 548.47Q531.83 550.06 533.08 550.95Q534.33 551.83 536.02 551.83Q537.13 551.83 538.04 551.44Q538.94 551.05 539.57 550.33Q540.2 549.61 540.47 548.59H543.32Q543.07 550.23 542.13 551.54Q541.18 552.85 539.63 553.62Q538.08 554.39 536.02 554.39ZM555.24 554.39Q552.56 554.39 550.63 553.2Q548.69 552.01 547.64 549.86Q546.6 547.72 546.6 544.87Q546.6 542.02 547.64 539.84Q548.69 537.66 550.57 536.44Q552.44 535.21 554.95 535.21Q556.4 535.21 557.82 535.7Q559.23 536.18 560.39 537.26Q561.55 538.34 562.24 540.12Q562.92 541.89 562.92 544.49V545.69H548.63V543.23H560.03Q560.03 541.66 559.4 540.43Q558.78 539.2 557.64 538.49Q556.5 537.77 554.95 537.77Q553.25 537.77 552.01 538.61Q550.78 539.45 550.11 540.79Q549.45 542.13 549.45 543.66V545.31Q549.45 547.41 550.18 548.86Q550.91 550.32 552.21 551.07Q553.52 551.83 555.24 551.83Q556.37 551.83 557.28 551.51Q558.19 551.19 558.85 550.54Q559.52 549.89 559.88 548.93L562.63 549.7Q562.2 551.1 561.17 552.16Q560.15 553.22 558.64 553.8Q557.13 554.39 555.24 554.39ZM569.35 554.19Q568.45 554.19 567.81 553.55Q567.17 552.91 567.17 552.02Q567.17 551.13 567.81 550.49Q568.45 549.85 569.35 549.85Q570.24 549.85 570.88 550.49Q571.52 551.13 571.52 552.02Q571.52 552.61 571.22 553.11Q570.93 553.6 570.44 553.9Q569.95 554.19 569.35 554.19Z"/>
</svg>
